<svg width="833" height="233" viewBox="0 0 833 233" fill="none" xmlns="http://www.w3.org/2000/svg">
<g clip-path="url(#clip0_4_6530)">
<path d="M116.02 15C171.81 15 217.04 60.23 217.04 116.02C217.04 171.81 171.81 217.04 116.02 217.04C60.23 217.04 15 171.8 15 116.02C15 60.24 60.23 15 116.02 15ZM116.02 0C85.03 0 55.9 12.07 33.98 33.98C12.07 55.89 0 85.03 0 116.02C0 147.01 12.07 176.14 33.98 198.06C55.89 219.97 85.03 232.04 116.02 232.04C147.01 232.04 176.14 219.97 198.06 198.06C219.97 176.15 232.04 147.01 232.04 116.02C232.04 85.03 219.97 55.9 198.06 33.98C176.14 12.07 147 0 116.02 0Z" fill="#97AE4D"/>
<path d="M68.43 176.8H79.94V202.24H79.27C73.28 202.24 68.42 197.38 68.42 191.39V176.8H68.43Z" fill="#97AE4D"/>
<path d="M152.09 176.8H163.6V191.39C163.6 197.38 158.74 202.24 152.75 202.24H152.08V176.8H152.09Z" fill="#97AE4D"/>
<path d="M89.15 162.49H100.66V207.68H99.99C94 207.68 89.14 202.82 89.14 196.83V162.48L89.15 162.49Z" fill="#97AE4D"/>
<path d="M130.73 162.49H142.24V196.84C142.24 202.83 137.38 207.69 131.39 207.69H130.72V162.5L130.73 162.49Z" fill="#97AE4D"/>
<path d="M109.94 147.92L115.7 143.99L121.45 147.9V205.29C121.45 207.67 118.88 209.59 115.7 209.59C112.52 209.59 109.94 207.66 109.94 205.29V147.92Z" fill="#97AE4D"/>
<path d="M138.48 52.23C138.48 52.23 125.77 53.45 121.45 49.27V86.4C117.65 91.22 115.7 94.85 115.7 94.85C115.7 94.85 113.75 91.2 109.94 86.37V49.27C105.62 53.46 92.91 52.23 92.91 52.23L115.7 26.25L138.48 52.23Z" fill="#97AE4D"/>
<path d="M198.79 117.29C198.31 137.58 181.7 154.1 161.4 154.48C150.83 154.68 141.22 150.57 134.19 143.8L133.3 142.91C132.35 141.93 131.45 140.9 130.61 139.83L89.89 99.11C89.44 98.58 88.96 98.07 88.47 97.58C88.14 97.25 87.81 96.93 87.46 96.63C82.95 92.63 77.02 90.19 70.52 90.19C56.44 90.19 45.02 101.62 45.04 115.7C45.05 129.22 55.85 140.53 69.34 141.14C76.98 141.48 83.93 138.46 88.8 133.43L101.37 120.26L107.85 126.75L110.78 129.67C107 133.45 103.25 137.25 99.67 141.22C92.69 148.95 82.59 153.8 71.36 153.8C49.99 153.8 32.72 136.22 33.24 114.73C33.72 94.43 50.33 77.92 70.62 77.54C81.2 77.34 90.81 81.44 97.83 88.21C97.85 88.23 97.86 88.24 97.87 88.25L98.73 89.11C99.68 90.09 100.58 91.12 101.42 92.19L142.14 132.91C142.59 133.44 143.07 133.96 143.57 134.44C143.89 134.77 144.23 135.09 144.58 135.39C149.08 139.39 155.01 141.83 161.51 141.83C175.6 141.83 187.01 130.4 187 116.32C186.98 102.81 176.19 91.49 162.69 90.88C155.05 90.54 148.11 93.56 143.23 98.59L130.67 111.76L124.19 105.27L121.27 102.35C125.05 98.57 128.8 94.77 132.38 90.8C139.36 83.07 149.46 78.21 160.69 78.21C182.06 78.21 199.33 95.79 198.81 117.28L198.79 117.29Z" fill="#97AE4D"/>
<path d="M362.215 145.053V169.769H358.49V145.053H362.215Z" fill="#15161A"/>
<path d="M387.596 145.053V169.769H384.168L371.605 151.639H371.379V169.769H367.654V145.053H371.109L383.687 163.211H383.913V145.053H387.61H387.596Z" fill="#15161A"/>
<path d="M395.187 145.053L402.07 165.194H402.354L409.237 145.053H413.274L404.379 169.769H400.073L391.179 145.053H395.215H395.187Z" fill="#15161A"/>
<path d="M416.814 169.783V145.068H432.309V148.283H420.539V155.818H431.502V159.018H420.539V166.582H432.451V169.797H416.814V169.783Z" fill="#15161A"/>
<path d="M450.806 151.554C450.679 150.407 450.141 149.529 449.22 148.892C448.285 148.254 447.11 147.943 445.693 147.943C444.674 147.943 443.81 148.098 443.059 148.424C442.322 148.736 441.742 149.175 441.345 149.727C440.934 150.28 440.736 150.903 440.736 151.611C440.736 152.206 440.878 152.702 441.147 153.126C441.43 153.551 441.784 153.905 442.252 154.189C442.705 154.472 443.201 154.713 443.725 154.897C444.249 155.081 444.744 155.237 445.24 155.364L447.648 155.987C448.441 156.186 449.248 156.441 450.07 156.766C450.891 157.092 451.67 157.531 452.378 158.069C453.087 158.608 453.667 159.273 454.092 160.081C454.517 160.888 454.744 161.837 454.744 162.942C454.744 164.344 454.39 165.59 453.667 166.667C452.945 167.757 451.911 168.607 450.537 169.244C449.163 169.882 447.52 170.193 445.594 170.193C443.668 170.193 442.138 169.896 440.793 169.315C439.433 168.72 438.385 167.899 437.62 166.808C436.855 165.732 436.431 164.443 436.36 162.956H440.099C440.17 163.848 440.467 164.599 440.977 165.179C441.487 165.774 442.138 166.213 442.946 166.497C443.753 166.78 444.631 166.922 445.58 166.922C446.628 166.922 447.577 166.752 448.399 166.426C449.22 166.086 449.872 165.633 450.353 165.024C450.82 164.429 451.061 163.721 451.061 162.913C451.061 162.177 450.849 161.582 450.438 161.115C450.027 160.647 449.461 160.265 448.767 159.953C448.073 159.642 447.265 159.373 446.387 159.146L443.47 158.353C441.487 157.815 439.929 157.021 438.768 155.973C437.606 154.925 437.04 153.537 437.04 151.823C437.04 150.393 437.422 149.161 438.201 148.098C438.966 147.036 440.014 146.215 441.345 145.62C442.662 145.025 444.15 144.728 445.807 144.728C447.464 144.728 448.965 145.025 450.24 145.606C451.529 146.201 452.534 146.994 453.271 148.028C454.007 149.062 454.404 150.237 454.432 151.554H450.835H450.806Z" fill="#15161A"/>
<path d="M457.973 148.269V145.053H477.108V148.269H469.389V169.783H465.678V148.269H457.973Z" fill="#15161A"/>
<path d="M481.314 145.053H485.846L493.721 164.273H494.019L501.893 145.053H506.426V169.769H502.871V151.88H502.644L495.35 169.74H492.404L485.11 151.88H484.883V169.783H481.328V145.068L481.314 145.053Z" fill="#15161A"/>
<path d="M511.836 169.783V145.068H527.331V148.283H515.561V155.818H526.523V159.018H515.561V166.582H527.472V169.797H511.822L511.836 169.783Z" fill="#15161A"/>
<path d="M552.286 145.053V169.769H548.859L536.296 151.639H536.069V169.769H532.344V145.053H535.8L548.377 163.211H548.604V145.053H552.301H552.286Z" fill="#15161A"/>
<path d="M556.493 148.269V145.053H575.628V148.269H567.909V169.783H564.198V148.269H556.493Z" fill="#15161A"/>
<path d="M609.379 153.098H605.611C605.47 152.291 605.201 151.583 604.804 150.974C604.407 150.365 603.926 149.841 603.359 149.416C602.793 148.991 602.155 148.665 601.447 148.453C600.739 148.24 600.003 148.127 599.209 148.127C597.779 148.127 596.504 148.481 595.385 149.203C594.266 149.926 593.374 150.974 592.723 152.347C592.071 153.735 591.745 155.421 591.745 157.418C591.745 159.415 592.071 161.129 592.723 162.517C593.374 163.905 594.252 164.953 595.385 165.661C596.504 166.369 597.779 166.723 599.181 166.723C599.96 166.723 600.711 166.61 601.405 166.397C602.099 166.185 602.75 165.873 603.317 165.449C603.883 165.024 604.379 164.514 604.776 163.905C605.172 163.296 605.455 162.602 605.597 161.809H609.365C609.166 163.041 608.77 164.16 608.203 165.165C607.622 166.185 606.886 167.063 605.994 167.8C605.101 168.536 604.067 169.103 602.92 169.513C601.773 169.924 600.512 170.122 599.153 170.122C597.014 170.122 595.102 169.613 593.431 168.593C591.76 167.573 590.442 166.114 589.479 164.216C588.516 162.318 588.035 160.052 588.035 157.418C588.035 154.784 588.516 152.517 589.479 150.62C590.442 148.722 591.76 147.263 593.431 146.257C595.102 145.237 597.014 144.728 599.139 144.728C600.456 144.728 601.674 144.912 602.821 145.294C603.968 145.677 604.988 146.215 605.894 146.937C606.801 147.659 607.552 148.538 608.146 149.571C608.741 150.605 609.138 151.781 609.35 153.112L609.379 153.098Z" fill="#15161A"/>
<path d="M635.312 157.418C635.312 160.052 634.83 162.319 633.867 164.216C632.904 166.114 631.573 167.573 629.901 168.579C628.23 169.584 626.318 170.108 624.179 170.108C622.041 170.108 620.129 169.598 618.457 168.579C616.786 167.559 615.455 166.1 614.492 164.202C613.529 162.304 613.047 160.038 613.047 157.404C613.047 154.769 613.529 152.503 614.492 150.605C615.455 148.708 616.786 147.249 618.457 146.243C620.129 145.238 622.041 144.714 624.179 144.714C626.318 144.714 628.216 145.223 629.901 146.243C631.587 147.263 632.904 148.722 633.867 150.605C634.83 152.503 635.312 154.769 635.312 157.404V157.418ZM631.615 157.418C631.615 155.407 631.289 153.707 630.638 152.333C629.986 150.96 629.108 149.911 627.975 149.189C626.856 148.481 625.582 148.127 624.165 148.127C622.749 148.127 621.474 148.481 620.355 149.189C619.236 149.897 618.358 150.945 617.707 152.333C617.055 153.707 616.73 155.407 616.73 157.418C616.73 159.429 617.055 161.129 617.707 162.503C618.358 163.877 619.236 164.925 620.355 165.647C621.474 166.369 622.749 166.709 624.165 166.709C625.582 166.709 626.856 166.355 627.975 165.647C629.094 164.939 629.986 163.891 630.638 162.503C631.289 161.129 631.615 159.429 631.615 157.418Z" fill="#15161A"/>
<path d="M639.957 145.053H644.49L652.364 164.273H652.648L660.522 145.053H665.055V169.769H661.5V151.88H661.273L653.979 169.74H651.033L643.739 151.88H643.512V169.783H639.971V145.068L639.957 145.053Z" fill="#15161A"/>
<path d="M670.465 169.783V145.068H679.274C681.201 145.068 682.787 145.422 684.062 146.116C685.322 146.81 686.271 147.773 686.894 148.977C687.518 150.181 687.843 151.554 687.843 153.056C687.843 154.557 687.532 155.945 686.894 157.149C686.257 158.353 685.308 159.316 684.047 160.024C682.787 160.732 681.187 161.086 679.274 161.086H673.213V157.928H678.935C680.153 157.928 681.13 157.715 681.895 157.291C682.645 156.866 683.212 156.285 683.566 155.563C683.92 154.826 684.104 154.005 684.104 153.07C684.104 152.135 683.934 151.314 683.566 150.577C683.198 149.841 682.66 149.288 681.895 148.878C681.13 148.467 680.138 148.269 678.892 148.269H674.204V169.797H670.479L670.465 169.783Z" fill="#15161A"/>
<path d="M691.653 169.783H687.702L696.596 145.068H700.902L709.796 169.783H705.831L698.848 149.557H698.65L691.653 169.783ZM692.319 160.109H705.165V163.253H692.319V160.109Z" fill="#15161A"/>
<path d="M733.307 145.053V169.769H729.88L717.317 151.639H717.09V169.769H713.365V145.053H716.821L729.398 163.211H729.625V145.053H733.321H733.307Z" fill="#15161A"/>
<path d="M736.834 145.053H741.069L747.528 156.285H747.797L754.255 145.053H758.49L749.525 160.067V169.769H745.814V160.067L736.848 145.053H736.834Z" fill="#15161A"/>
<path d="M282.04 61.8467H294.953V119.701H282.04V61.8467Z" fill="#15161A"/>
<path d="M327.626 61.8467H339.54V119.701H327.891L315.244 85.0439V119.701H303.418V61.8467H315.155L327.613 96.415V61.8467H327.626Z" fill="#15161A"/>
<path d="M378.746 71.3985H360.64V87.3181H375.827V96.3266H360.64V119.701H347.626V61.8467H378.733V71.3985H378.746Z" fill="#15161A"/>
<path d="M384.204 61.8467H397.116V119.701H384.204V61.8467Z" fill="#15161A"/>
<path d="M429.777 61.8467H441.692V119.701H430.042L417.395 85.0439V119.701H405.569V61.8467H417.307L429.765 96.415V61.8467H429.777Z" fill="#15161A"/>
<path d="M450.068 61.8467H462.981V119.701H450.068V61.8467Z" fill="#15161A"/>
<path d="M502.009 61.8467V71.3985H491.371V119.701H478.357V71.3985H467.807V61.8467H502.009Z" fill="#15161A"/>
<path d="M530.21 119.714H517.196V100.976L502.641 61.8596H515.92L523.653 89.062L530.842 61.8596H544.121L530.197 101.065V119.714H530.21Z" fill="#15161A"/>
<path d="M598.791 80.5965H585.777V73.041C585.777 71.5248 584.956 70.7667 583.326 70.7667H579.599C577.956 70.7667 577.148 71.5248 577.148 73.041V108.519C577.148 109.365 577.324 109.959 577.691 110.288C578.057 110.616 578.689 110.793 579.599 110.793H583.326C584.236 110.793 584.867 110.629 585.234 110.288C585.6 109.959 585.777 109.365 585.777 108.519V97.2363H581.229V88.5942H598.791V109.694C598.791 116.365 594.975 119.701 587.331 119.701H575.594C567.95 119.701 564.134 116.365 564.134 109.694V71.8533C564.134 65.1822 567.95 61.8467 575.594 61.8467H587.331C594.975 61.8467 598.791 65.1822 598.791 71.8533V80.5838V80.5965Z" fill="#15161A"/>
<path d="M618.994 98.0578V119.714H606.081V61.8596H629.91C637.554 61.8596 641.37 65.1952 641.37 71.8662V88.0638C641.37 93.3956 638.944 96.6175 634.092 97.704L644.276 119.714H630.352L621.255 98.0578H618.981H618.994ZM618.994 71.3988V88.8598H625.993C626.84 88.8598 627.446 88.6955 627.813 88.3544C628.179 88.0259 628.356 87.4573 628.356 86.674V73.6604C628.356 72.1442 627.573 71.3861 625.993 71.3861H618.994V71.3988Z" fill="#15161A"/>
<path d="M659.93 61.8467H672.123C679.767 61.8467 683.582 65.1822 683.582 71.8533V109.606C683.582 116.34 679.767 119.701 672.123 119.701H659.93C652.223 119.701 648.382 116.34 648.382 109.606V71.8533C648.382 65.1822 652.236 61.8467 659.93 61.8467ZM670.569 107.875V73.6727C670.569 72.1566 669.785 71.3985 668.206 71.3985H663.834C662.192 71.3985 661.383 72.1566 661.383 73.6727V107.875C661.383 109.391 662.204 110.149 663.834 110.149H668.206C669.785 110.149 670.569 109.391 670.569 107.875Z" fill="#15161A"/>
<path d="M741.702 61.8467H754.614L743.42 119.701H727.867L721.41 81.8599L714.954 119.701H699.401L688.206 61.8467H701.675L707.133 105.057L714.777 61.8467H727.968L735.612 105.057L741.702 61.8467Z" fill="#15161A"/>
<path d="M790.193 61.8467V71.3985H779.555V119.701H766.541V71.3985H755.991V61.8467H790.193Z" fill="#15161A"/>
<path d="M819.216 61.8467H832.04V119.701H819.216V95.8717H807.567V119.701H794.742V61.8467H807.567V86.32H819.216V61.8467Z" fill="#15161A"/>
</g>
<defs>
<clipPath id="clip0_4_6530">
<rect width="832.04" height="232.04" fill="white"/>
</clipPath>
</defs>
</svg>
