<?xml version="1.0" standalone="no"?>
<!DOCTYPE svg PUBLIC "-//W3C//DTD SVG 20010904//EN"
 "http://www.w3.org/TR/2001/REC-SVG-20010904/DTD/svg10.dtd">
<svg version="1.0" xmlns="http://www.w3.org/2000/svg"
 width="360.000000pt" height="360.000000pt" viewBox="0 0 360.000000 360.000000"
 preserveAspectRatio="xMidYMid meet">

<g transform="translate(0.000000,360.000000) scale(0.100000,-0.100000)"
fill="#000000" stroke="none">
<path d="M890 1800 l0 -1600 305 0 305 0 1 803 c0 586 3 794 11 772 6 -16 112
-284 235 -595 123 -311 261 -658 306 -772 l82 -208 288 0 287 0 0 1600 0 1600
-305 0 -305 0 -2 -785 -3 -786 -102 268 c-56 147 -145 383 -198 523 -86 225
-272 715 -290 763 -7 16 -31 17 -311 17 l-304 0 0 -1600z"/>
</g>
</svg>
