<svg width="231" height="231" viewBox="0 0 231 231" fill="none" xmlns="http://www.w3.org/2000/svg">
<g clip-path="url(#clip0_394_189)">
<path d="M115.505 14.9334C171.047 14.9334 216.077 59.9626 216.077 115.505C216.077 171.047 171.047 216.077 115.505 216.077C59.9626 216.077 14.9334 171.037 14.9334 115.505C14.9334 59.9726 59.9626 14.9334 115.505 14.9334ZM115.505 0C84.6525 0 55.6519 12.0164 33.8292 33.8292C12.0164 55.6419 0 84.6525 0 115.505C0 146.357 12.0164 175.358 33.8292 197.181C55.6419 218.994 84.6525 231.01 115.505 231.01C146.357 231.01 175.358 218.994 197.181 197.181C218.994 175.368 231.01 146.357 231.01 115.505C231.01 84.6525 218.994 55.6519 197.181 33.8292C175.358 12.0164 146.347 0 115.505 0Z" fill="#97AE4D"/>
<path d="M68.1263 176.015H79.5852V201.342H78.9182C72.9548 201.342 68.1163 196.504 68.1163 190.54V176.015H68.1263Z" fill="#97AE4D"/>
<path d="M151.415 176.015H162.874V190.54C162.874 196.504 158.035 201.342 152.072 201.342H151.405V176.015H151.415Z" fill="#97AE4D"/>
<path d="M88.7543 161.769H100.213V206.758H99.5462C93.5828 206.758 88.7444 201.92 88.7444 195.956V161.759L88.7543 161.769Z" fill="#97AE4D"/>
<path d="M130.15 161.769H141.609V195.966C141.609 201.93 136.77 206.768 130.807 206.768H130.14V161.779L130.15 161.769Z" fill="#97AE4D"/>
<path d="M109.452 147.263L115.186 143.351L120.911 147.243V204.379C120.911 206.748 118.352 208.66 115.186 208.66C112.021 208.66 109.452 206.738 109.452 204.379V147.263Z" fill="#97AE4D"/>
<path d="M137.865 51.9982C137.865 51.9982 125.212 53.2127 120.911 49.0513V86.0165C117.128 90.8151 115.186 94.429 115.186 94.429C115.186 94.429 113.245 90.7952 109.452 85.9866V49.0513C105.151 53.2227 92.4976 51.9982 92.4976 51.9982L115.186 26.1335L137.865 51.9982Z" fill="#97AE4D"/>
<path d="M197.908 116.769C197.43 136.969 180.893 153.416 160.684 153.794C150.16 153.993 140.593 149.902 133.594 143.162L132.708 142.276C131.762 141.3 130.866 140.275 130.03 139.209L89.491 98.6701C89.043 98.1424 88.5651 97.6347 88.0773 97.1469C87.7487 96.8183 87.4202 96.4997 87.0718 96.2011C82.5818 92.2188 76.6781 89.7897 70.207 89.7897C56.1895 89.7897 44.8202 101.169 44.8401 115.186C44.85 128.646 55.6021 139.906 69.0322 140.513C76.6383 140.852 83.5574 137.845 88.4058 132.838L100.92 119.726L107.371 126.187L110.288 129.094C106.525 132.858 102.792 136.641 99.2275 140.593C92.2785 148.289 82.2234 153.117 71.0432 153.117C49.7681 153.117 32.5748 135.615 33.0924 114.221C33.5703 94.0108 50.1066 77.5741 70.3065 77.1958C80.8395 76.9967 90.4069 81.0785 97.3957 87.8184C97.4156 87.8384 97.4256 87.8483 97.4355 87.8583L98.2917 88.7144C99.2375 89.6901 100.134 90.7155 100.97 91.7808L141.509 132.32C141.957 132.848 142.435 133.365 142.933 133.843C143.251 134.172 143.59 134.49 143.938 134.789C148.418 138.771 154.322 141.2 160.793 141.2C174.82 141.2 186.18 129.821 186.17 115.804C186.15 102.354 175.408 91.0839 161.968 90.4766C154.362 90.1381 147.453 93.1447 142.594 98.1524L130.09 111.264L123.639 104.803L120.732 101.896C124.495 98.1325 128.228 94.3493 131.792 90.3969C138.741 82.7013 148.797 77.8628 159.977 77.8628C181.252 77.8628 198.445 95.3648 197.927 116.759L197.908 116.769Z" fill="#97AE4D"/>
</g>
<defs>
<clipPath id="clip0_394_189">
<rect width="231" height="231" fill="white"/>
</clipPath>
</defs>
</svg>
